<mxfile host="app.diagrams.net" agent="Mozilla/5.0 (Macintosh; Intel Mac OS X 10_15_7) AppleWebKit/537.36 (KHTML, like Gecko) Chrome/129.0.0.0 Safari/537.36" version="24.8.2" pages="2">
  <diagram name="runtime" id="QbyBi8EexxuOOD85foa4">
    <mxGraphModel dx="2901" dy="1145" grid="1" gridSize="10" guides="1" tooltips="1" connect="1" arrows="1" fold="1" page="1" pageScale="1" pageWidth="827" pageHeight="1169" math="0" shadow="0">
      <root>
        <mxCell id="0" />
        <mxCell id="1" parent="0" />
        <mxCell id="hQ3KEiviUVquUYG1Wzhw-1" value="«ABC»&lt;br&gt;&lt;b&gt;&lt;font style=&quot;font-size: 18px;&quot;&gt;Protocol&lt;/font&gt;&lt;/b&gt;&lt;div&gt;&lt;b&gt;&amp;lt;typing&amp;gt;&lt;/b&gt;&lt;/div&gt;" style="html=1;whiteSpace=wrap;" vertex="1" parent="1">
          <mxGeometry x="280" y="90" width="240" height="60" as="geometry" />
        </mxCell>
        <mxCell id="hQ3KEiviUVquUYG1Wzhw-17" style="edgeStyle=orthogonalEdgeStyle;rounded=0;orthogonalLoop=1;jettySize=auto;html=1;entryX=0.5;entryY=1;entryDx=0;entryDy=0;" edge="1" parent="1" source="hQ3KEiviUVquUYG1Wzhw-12" target="hQ3KEiviUVquUYG1Wzhw-1">
          <mxGeometry relative="1" as="geometry" />
        </mxCell>
        <mxCell id="hQ3KEiviUVquUYG1Wzhw-12" value="&lt;p style=&quot;margin:0px;margin-top:4px;text-align:center;&quot;&gt;«ABC»&lt;br&gt;&lt;b&gt;&lt;font style=&quot;font-size: 18px;&quot;&gt;AgentRuntime&lt;/font&gt;&lt;/b&gt;&lt;/p&gt;&lt;div style=&quot;text-align: center;&quot;&gt;&lt;b&gt;&amp;lt;_agent_runtime.py&amp;gt;&lt;/b&gt;&lt;/div&gt;&lt;hr size=&quot;1&quot; style=&quot;border-style:solid;&quot;&gt;&lt;p style=&quot;margin:0px;margin-left:4px;&quot;&gt;+ field1: Type&lt;br&gt;+ field2: Type&lt;/p&gt;&lt;hr size=&quot;1&quot; style=&quot;border-style:solid;&quot;&gt;&lt;p style=&quot;margin:0px;margin-left:4px;&quot;&gt;+ method1(Type): Type&lt;br&gt;+ method2(Type, Type): Type&lt;/p&gt;" style="verticalAlign=top;align=left;overflow=fill;html=1;whiteSpace=wrap;" vertex="1" parent="1">
          <mxGeometry x="280" y="250" width="240" height="140" as="geometry" />
        </mxCell>
        <mxCell id="hQ3KEiviUVquUYG1Wzhw-15" style="edgeStyle=orthogonalEdgeStyle;rounded=0;orthogonalLoop=1;jettySize=auto;html=1;entryX=0.5;entryY=1;entryDx=0;entryDy=0;exitX=0.5;exitY=0;exitDx=0;exitDy=0;" edge="1" parent="1" source="hQ3KEiviUVquUYG1Wzhw-13" target="hQ3KEiviUVquUYG1Wzhw-12">
          <mxGeometry relative="1" as="geometry" />
        </mxCell>
        <mxCell id="hQ3KEiviUVquUYG1Wzhw-13" value="&lt;p style=&quot;margin: 4px 0px 0px; text-align: center;&quot;&gt;&lt;br&gt;&lt;span style=&quot;font-size: 18px; font-weight: 700;&quot;&gt;SingleThreadedAgentRuntime&lt;/span&gt;&lt;br&gt;&lt;/p&gt;&lt;div style=&quot;text-align: center;&quot;&gt;&lt;b&gt;&amp;lt;_single_thread_agent_runtime.py&amp;gt;&lt;/b&gt;&lt;/div&gt;&lt;hr size=&quot;1&quot; style=&quot;border-style:solid;&quot;&gt;&lt;p style=&quot;margin:0px;margin-left:4px;&quot;&gt;+ field: Type&lt;/p&gt;&lt;hr size=&quot;1&quot; style=&quot;border-style:solid;&quot;&gt;&lt;p style=&quot;margin:0px;margin-left:4px;&quot;&gt;+ method(): Type&lt;/p&gt;" style="verticalAlign=top;align=left;overflow=fill;html=1;whiteSpace=wrap;" vertex="1" parent="1">
          <mxGeometry x="-140" y="550" width="320" height="165" as="geometry" />
        </mxCell>
        <mxCell id="hQ3KEiviUVquUYG1Wzhw-16" style="edgeStyle=orthogonalEdgeStyle;rounded=0;orthogonalLoop=1;jettySize=auto;html=1;exitX=0.5;exitY=0;exitDx=0;exitDy=0;" edge="1" parent="1" source="hQ3KEiviUVquUYG1Wzhw-14">
          <mxGeometry relative="1" as="geometry">
            <mxPoint x="400" y="390" as="targetPoint" />
          </mxGeometry>
        </mxCell>
        <mxCell id="hQ3KEiviUVquUYG1Wzhw-14" value="&lt;p style=&quot;margin: 4px 0px 0px; text-align: center;&quot;&gt;&lt;br&gt;&lt;span style=&quot;font-size: 18px;&quot;&gt;&lt;b&gt;WorkerAgentRuntime&lt;/b&gt;&lt;/span&gt;&lt;br&gt;&lt;/p&gt;&lt;div style=&quot;text-align: center;&quot;&gt;&lt;b&gt;&amp;lt;_worker_runtime.py&amp;gt;&lt;/b&gt;&lt;/div&gt;&lt;hr size=&quot;1&quot; style=&quot;border-style:solid;&quot;&gt;&lt;p style=&quot;margin:0px;margin-left:4px;&quot;&gt;+ field: Type&lt;/p&gt;&lt;hr size=&quot;1&quot; style=&quot;border-style:solid;&quot;&gt;&lt;p style=&quot;margin:0px;margin-left:4px;&quot;&gt;+ method(): Type&lt;/p&gt;" style="verticalAlign=top;align=left;overflow=fill;html=1;whiteSpace=wrap;" vertex="1" parent="1">
          <mxGeometry x="530" y="550" width="320" height="165" as="geometry" />
        </mxCell>
      </root>
    </mxGraphModel>
  </diagram>
  <diagram id="-HXd_vTkWQnyr84neJmx" name="agent">
    <mxGraphModel dx="4975" dy="2290" grid="1" gridSize="10" guides="1" tooltips="1" connect="1" arrows="1" fold="1" page="1" pageScale="1" pageWidth="827" pageHeight="1169" math="0" shadow="0">
      <root>
        <mxCell id="0" />
        <mxCell id="1" parent="0" />
        <mxCell id="H0mDxOUdeYx-2O6T3H5b-1" value="«ABC»&lt;br&gt;&lt;b&gt;&lt;font style=&quot;font-size: 18px;&quot;&gt;Protocol&lt;/font&gt;&lt;/b&gt;&lt;div&gt;&lt;b&gt;&amp;lt;typing&amp;gt;&lt;/b&gt;&lt;/div&gt;" style="html=1;whiteSpace=wrap;" vertex="1" parent="1">
          <mxGeometry x="280" y="70" width="280" height="80" as="geometry" />
        </mxCell>
        <mxCell id="H0mDxOUdeYx-2O6T3H5b-2" style="edgeStyle=orthogonalEdgeStyle;rounded=0;orthogonalLoop=1;jettySize=auto;html=1;entryX=0.5;entryY=1;entryDx=0;entryDy=0;" edge="1" parent="1" source="H0mDxOUdeYx-2O6T3H5b-3" target="H0mDxOUdeYx-2O6T3H5b-1">
          <mxGeometry relative="1" as="geometry" />
        </mxCell>
        <mxCell id="H0mDxOUdeYx-2O6T3H5b-3" value="&lt;p style=&quot;margin:0px;margin-top:4px;text-align:center;&quot;&gt;«ABC»&lt;br&gt;&lt;b&gt;&lt;font style=&quot;font-size: 18px;&quot;&gt;Agent&lt;/font&gt;&lt;/b&gt;&lt;/p&gt;&lt;div style=&quot;text-align: center;&quot;&gt;&lt;b&gt;&amp;lt;_agent.py&amp;gt;&lt;/b&gt;&lt;/div&gt;&lt;hr size=&quot;1&quot; style=&quot;border-style:solid;&quot;&gt;&lt;p style=&quot;margin:0px;margin-left:4px;&quot;&gt;+ field1: Type&lt;br&gt;+ field2: Type&lt;/p&gt;&lt;hr size=&quot;1&quot; style=&quot;border-style:solid;&quot;&gt;&lt;p style=&quot;margin:0px;margin-left:4px;&quot;&gt;+ method1(Type): Type&lt;br&gt;+ method2(Type, Type): Type&lt;/p&gt;" style="verticalAlign=top;align=left;overflow=fill;html=1;whiteSpace=wrap;" vertex="1" parent="1">
          <mxGeometry x="280" y="240" width="280" height="150" as="geometry" />
        </mxCell>
        <mxCell id="dyTPdEArOloGnQlEpaNO-3" style="edgeStyle=orthogonalEdgeStyle;rounded=0;orthogonalLoop=1;jettySize=auto;html=1;entryX=0.5;entryY=1;entryDx=0;entryDy=0;exitX=0.5;exitY=0;exitDx=0;exitDy=0;" edge="1" parent="1" source="dyTPdEArOloGnQlEpaNO-1" target="H0mDxOUdeYx-2O6T3H5b-3">
          <mxGeometry relative="1" as="geometry" />
        </mxCell>
        <mxCell id="dyTPdEArOloGnQlEpaNO-1" value="&lt;p style=&quot;margin: 4px 0px 0px; text-align: center;&quot;&gt;&lt;br&gt;&lt;span style=&quot;font-size: 18px;&quot;&gt;&lt;b&gt;ClosureAgent&lt;/b&gt;&lt;/span&gt;&lt;br&gt;&lt;/p&gt;&lt;div style=&quot;text-align: center;&quot;&gt;&lt;b&gt;&amp;lt;_closure_agent.py&amp;gt;&lt;/b&gt;&lt;/div&gt;&lt;hr size=&quot;1&quot; style=&quot;border-style:solid;&quot;&gt;&lt;p style=&quot;margin:0px;margin-left:4px;&quot;&gt;+ field: Type&lt;/p&gt;&lt;hr size=&quot;1&quot; style=&quot;border-style:solid;&quot;&gt;&lt;p style=&quot;margin:0px;margin-left:4px;&quot;&gt;+ method(): Type&lt;/p&gt;" style="verticalAlign=top;align=left;overflow=fill;html=1;whiteSpace=wrap;" vertex="1" parent="1">
          <mxGeometry x="-140" y="550" width="320" height="165" as="geometry" />
        </mxCell>
        <mxCell id="dyTPdEArOloGnQlEpaNO-4" style="edgeStyle=orthogonalEdgeStyle;rounded=0;orthogonalLoop=1;jettySize=auto;html=1;exitX=0.5;exitY=0;exitDx=0;exitDy=0;entryX=0.5;entryY=1;entryDx=0;entryDy=0;" edge="1" parent="1" source="dyTPdEArOloGnQlEpaNO-2" target="H0mDxOUdeYx-2O6T3H5b-3">
          <mxGeometry relative="1" as="geometry">
            <mxPoint x="400" y="390" as="targetPoint" />
          </mxGeometry>
        </mxCell>
        <mxCell id="dyTPdEArOloGnQlEpaNO-2" value="&lt;p style=&quot;margin: 4px 0px 0px; text-align: center;&quot;&gt;&lt;br&gt;&lt;span style=&quot;font-size: 18px;&quot;&gt;&lt;b&gt;BaseAgent&lt;/b&gt;&lt;/span&gt;&lt;br&gt;&lt;/p&gt;&lt;div style=&quot;text-align: center;&quot;&gt;&lt;b&gt;&amp;lt;_base_agent.py&amp;gt;&lt;/b&gt;&lt;/div&gt;&lt;hr size=&quot;1&quot; style=&quot;border-style:solid;&quot;&gt;&lt;p style=&quot;margin:0px;margin-left:4px;&quot;&gt;+ field: Type&lt;/p&gt;&lt;hr size=&quot;1&quot; style=&quot;border-style:solid;&quot;&gt;&lt;p style=&quot;margin:0px;margin-left:4px;&quot;&gt;+ method(): Type&lt;/p&gt;" style="verticalAlign=top;align=left;overflow=fill;html=1;whiteSpace=wrap;" vertex="1" parent="1">
          <mxGeometry x="530" y="550" width="320" height="165" as="geometry" />
        </mxCell>
        <mxCell id="dyTPdEArOloGnQlEpaNO-6" style="edgeStyle=orthogonalEdgeStyle;rounded=0;orthogonalLoop=1;jettySize=auto;html=1;entryX=0.5;entryY=1;entryDx=0;entryDy=0;" edge="1" parent="1" source="dyTPdEArOloGnQlEpaNO-5" target="dyTPdEArOloGnQlEpaNO-2">
          <mxGeometry relative="1" as="geometry" />
        </mxCell>
        <mxCell id="dyTPdEArOloGnQlEpaNO-5" value="&lt;p style=&quot;margin: 4px 0px 0px; text-align: center;&quot;&gt;&lt;br&gt;&lt;span style=&quot;font-size: 18px;&quot;&gt;&lt;b&gt;RoutedAgent&lt;/b&gt;&lt;/span&gt;&lt;br&gt;&lt;/p&gt;&lt;div style=&quot;text-align: center;&quot;&gt;&lt;b&gt;&amp;lt;_routed_agent.py&amp;gt;&lt;/b&gt;&lt;/div&gt;&lt;hr size=&quot;1&quot; style=&quot;border-style:solid;&quot;&gt;&lt;p style=&quot;margin:0px;margin-left:4px;&quot;&gt;+ field: Type&lt;/p&gt;&lt;hr size=&quot;1&quot; style=&quot;border-style:solid;&quot;&gt;&lt;p style=&quot;margin:0px;margin-left:4px;&quot;&gt;+ method(): Type&lt;/p&gt;" style="verticalAlign=top;align=left;overflow=fill;html=1;whiteSpace=wrap;" vertex="1" parent="1">
          <mxGeometry x="530" y="820" width="320" height="165" as="geometry" />
        </mxCell>
        <mxCell id="dyTPdEArOloGnQlEpaNO-14" style="edgeStyle=orthogonalEdgeStyle;rounded=0;orthogonalLoop=1;jettySize=auto;html=1;exitX=0.5;exitY=0;exitDx=0;exitDy=0;entryX=0.5;entryY=1;entryDx=0;entryDy=0;" edge="1" parent="1" source="dyTPdEArOloGnQlEpaNO-7" target="dyTPdEArOloGnQlEpaNO-5">
          <mxGeometry relative="1" as="geometry">
            <mxPoint x="690" y="980" as="targetPoint" />
          </mxGeometry>
        </mxCell>
        <mxCell id="dyTPdEArOloGnQlEpaNO-7" value="&lt;p style=&quot;margin: 4px 0px 0px; text-align: center;&quot;&gt;&lt;br&gt;&lt;span style=&quot;font-size: 18px;&quot;&gt;&lt;b&gt;SequentialRoutedAgent&lt;/b&gt;&lt;/span&gt;&lt;br&gt;&lt;/p&gt;&lt;div style=&quot;text-align: center;&quot;&gt;&lt;b&gt;&amp;lt;_sequential_routed_agent.py&amp;gt;&lt;/b&gt;&lt;/div&gt;&lt;hr size=&quot;1&quot; style=&quot;border-style:solid;&quot;&gt;&lt;p style=&quot;margin:0px;margin-left:4px;&quot;&gt;+ field: Type&lt;/p&gt;&lt;hr size=&quot;1&quot; style=&quot;border-style:solid;&quot;&gt;&lt;p style=&quot;margin:0px;margin-left:4px;&quot;&gt;+ method(): Type&lt;/p&gt;" style="verticalAlign=top;align=left;overflow=fill;html=1;whiteSpace=wrap;" vertex="1" parent="1">
          <mxGeometry x="426" y="1150" width="320" height="165" as="geometry" />
        </mxCell>
        <mxCell id="dyTPdEArOloGnQlEpaNO-15" style="edgeStyle=orthogonalEdgeStyle;rounded=0;orthogonalLoop=1;jettySize=auto;html=1;entryX=0.5;entryY=1;entryDx=0;entryDy=0;" edge="1" parent="1" source="dyTPdEArOloGnQlEpaNO-8" target="dyTPdEArOloGnQlEpaNO-5">
          <mxGeometry relative="1" as="geometry">
            <Array as="points">
              <mxPoint x="1070" y="1070" />
              <mxPoint x="690" y="1070" />
            </Array>
          </mxGeometry>
        </mxCell>
        <mxCell id="dyTPdEArOloGnQlEpaNO-8" value="&lt;p style=&quot;margin: 4px 0px 0px; text-align: center;&quot;&gt;&lt;br&gt;&lt;span style=&quot;font-size: 18px;&quot;&gt;&lt;b&gt;ChatCompletionAgent&lt;/b&gt;&lt;/span&gt;&lt;br&gt;&lt;/p&gt;&lt;div style=&quot;text-align: center;&quot;&gt;&lt;b&gt;&amp;lt;_chat_completion_agent.py&amp;gt;&lt;/b&gt;&lt;/div&gt;&lt;hr size=&quot;1&quot; style=&quot;border-style:solid;&quot;&gt;&lt;p style=&quot;margin:0px;margin-left:4px;&quot;&gt;+ field: Type&lt;/p&gt;&lt;hr size=&quot;1&quot; style=&quot;border-style:solid;&quot;&gt;&lt;p style=&quot;margin:0px;margin-left:4px;&quot;&gt;+ method(): Type&lt;/p&gt;" style="verticalAlign=top;align=left;overflow=fill;html=1;whiteSpace=wrap;" vertex="1" parent="1">
          <mxGeometry x="896" y="1150" width="320" height="165" as="geometry" />
        </mxCell>
        <mxCell id="dyTPdEArOloGnQlEpaNO-16" style="edgeStyle=orthogonalEdgeStyle;rounded=0;orthogonalLoop=1;jettySize=auto;html=1;entryX=0.5;entryY=1;entryDx=0;entryDy=0;exitX=0.5;exitY=0;exitDx=0;exitDy=0;" edge="1" parent="1" source="dyTPdEArOloGnQlEpaNO-9" target="dyTPdEArOloGnQlEpaNO-5">
          <mxGeometry relative="1" as="geometry" />
        </mxCell>
        <mxCell id="dyTPdEArOloGnQlEpaNO-9" value="&lt;p style=&quot;margin: 4px 0px 0px; text-align: center;&quot;&gt;&lt;br&gt;&lt;span style=&quot;font-size: 18px;&quot;&gt;&lt;b&gt;GroupChatManager&lt;/b&gt;&lt;/span&gt;&lt;br&gt;&lt;/p&gt;&lt;div style=&quot;text-align: center;&quot;&gt;&lt;b&gt;&amp;lt;_group_chat_manager.py&amp;gt;&lt;/b&gt;&lt;/div&gt;&lt;hr size=&quot;1&quot; style=&quot;border-style:solid;&quot;&gt;&lt;p style=&quot;margin:0px;margin-left:4px;&quot;&gt;+ field: Type&lt;/p&gt;&lt;hr size=&quot;1&quot; style=&quot;border-style:solid;&quot;&gt;&lt;p style=&quot;margin:0px;margin-left:4px;&quot;&gt;+ method(): Type&lt;/p&gt;" style="verticalAlign=top;align=left;overflow=fill;html=1;whiteSpace=wrap;" vertex="1" parent="1">
          <mxGeometry x="1326" y="1150" width="320" height="165" as="geometry" />
        </mxCell>
        <mxCell id="dyTPdEArOloGnQlEpaNO-10" value="&lt;p style=&quot;margin: 4px 0px 0px; text-align: center;&quot;&gt;&lt;br&gt;&lt;span style=&quot;font-size: 18px;&quot;&gt;&lt;b&gt;ToolAgent&lt;/b&gt;&lt;/span&gt;&lt;br&gt;&lt;/p&gt;&lt;div style=&quot;text-align: center;&quot;&gt;&lt;b&gt;&amp;lt;_tool_agent.py&amp;gt;&lt;/b&gt;&lt;/div&gt;&lt;hr size=&quot;1&quot; style=&quot;border-style:solid;&quot;&gt;&lt;p style=&quot;margin:0px;margin-left:4px;&quot;&gt;+ field: Type&lt;/p&gt;&lt;hr size=&quot;1&quot; style=&quot;border-style:solid;&quot;&gt;&lt;p style=&quot;margin:0px;margin-left:4px;&quot;&gt;+ method(): Type&lt;/p&gt;" style="verticalAlign=top;align=left;overflow=fill;html=1;whiteSpace=wrap;" vertex="1" parent="1">
          <mxGeometry x="-64" y="1150" width="320" height="165" as="geometry" />
        </mxCell>
        <mxCell id="dyTPdEArOloGnQlEpaNO-17" style="edgeStyle=orthogonalEdgeStyle;rounded=0;orthogonalLoop=1;jettySize=auto;html=1;exitX=0.5;exitY=0;exitDx=0;exitDy=0;entryX=0.5;entryY=1;entryDx=0;entryDy=0;" edge="1" parent="1" source="dyTPdEArOloGnQlEpaNO-11" target="dyTPdEArOloGnQlEpaNO-5">
          <mxGeometry relative="1" as="geometry">
            <mxPoint x="690" y="980" as="targetPoint" />
          </mxGeometry>
        </mxCell>
        <mxCell id="dyTPdEArOloGnQlEpaNO-11" value="&lt;p style=&quot;margin: 4px 0px 0px; text-align: center;&quot;&gt;&lt;br&gt;&lt;span style=&quot;font-size: 18px;&quot;&gt;&lt;b&gt;MagenticOneBaseAgent&lt;/b&gt;&lt;/span&gt;&lt;br&gt;&lt;/p&gt;&lt;div style=&quot;text-align: center;&quot;&gt;&lt;b&gt;&amp;lt;_group_chat_manager.py&amp;gt;&lt;/b&gt;&lt;/div&gt;&lt;hr size=&quot;1&quot; style=&quot;border-style:solid;&quot;&gt;&lt;p style=&quot;margin:0px;margin-left:4px;&quot;&gt;+ field: Type&lt;/p&gt;&lt;hr size=&quot;1&quot; style=&quot;border-style:solid;&quot;&gt;&lt;p style=&quot;margin:0px;margin-left:4px;&quot;&gt;+ method(): Type&lt;/p&gt;" style="verticalAlign=top;align=left;overflow=fill;html=1;whiteSpace=wrap;" vertex="1" parent="1">
          <mxGeometry x="-594" y="1150" width="320" height="165" as="geometry" />
        </mxCell>
        <mxCell id="dyTPdEArOloGnQlEpaNO-12" style="edgeStyle=orthogonalEdgeStyle;rounded=0;orthogonalLoop=1;jettySize=auto;html=1;entryX=0.5;entryY=1;entryDx=0;entryDy=0;exitX=0.5;exitY=0;exitDx=0;exitDy=0;" edge="1" parent="1" source="dyTPdEArOloGnQlEpaNO-10" target="dyTPdEArOloGnQlEpaNO-5">
          <mxGeometry relative="1" as="geometry" />
        </mxCell>
        <mxCell id="dyTPdEArOloGnQlEpaNO-23" style="edgeStyle=orthogonalEdgeStyle;rounded=0;orthogonalLoop=1;jettySize=auto;html=1;entryX=0.5;entryY=1;entryDx=0;entryDy=0;" edge="1" parent="1" source="dyTPdEArOloGnQlEpaNO-20" target="dyTPdEArOloGnQlEpaNO-7">
          <mxGeometry relative="1" as="geometry" />
        </mxCell>
        <mxCell id="dyTPdEArOloGnQlEpaNO-20" value="&lt;p style=&quot;margin: 4px 0px 0px; text-align: center;&quot;&gt;&lt;br&gt;&lt;span style=&quot;font-size: 18px;&quot;&gt;&lt;b&gt;BaseChatAgentContainer&lt;/b&gt;&lt;/span&gt;&lt;br&gt;&lt;/p&gt;&lt;div style=&quot;text-align: center;&quot;&gt;&lt;b&gt;&amp;lt;_base_chat_agent_container.py&amp;gt;&lt;/b&gt;&lt;/div&gt;&lt;hr size=&quot;1&quot; style=&quot;border-style:solid;&quot;&gt;&lt;p style=&quot;margin:0px;margin-left:4px;&quot;&gt;+ field: Type&lt;/p&gt;&lt;hr size=&quot;1&quot; style=&quot;border-style:solid;&quot;&gt;&lt;p style=&quot;margin:0px;margin-left:4px;&quot;&gt;+ method(): Type&lt;/p&gt;" style="verticalAlign=top;align=left;overflow=fill;html=1;whiteSpace=wrap;" vertex="1" parent="1">
          <mxGeometry x="566" y="1480" width="320" height="165" as="geometry" />
        </mxCell>
        <mxCell id="dyTPdEArOloGnQlEpaNO-22" style="edgeStyle=orthogonalEdgeStyle;rounded=0;orthogonalLoop=1;jettySize=auto;html=1;entryX=0.5;entryY=1;entryDx=0;entryDy=0;" edge="1" parent="1" source="dyTPdEArOloGnQlEpaNO-21" target="dyTPdEArOloGnQlEpaNO-7">
          <mxGeometry relative="1" as="geometry" />
        </mxCell>
        <mxCell id="dyTPdEArOloGnQlEpaNO-21" value="&lt;p style=&quot;margin:0px;margin-top:4px;text-align:center;&quot;&gt;«ABC»&lt;br&gt;&lt;span style=&quot;font-size: 18px;&quot;&gt;&lt;b&gt;BaseGroupChatManager&lt;/b&gt;&lt;/span&gt;&lt;br&gt;&lt;/p&gt;&lt;div style=&quot;text-align: center;&quot;&gt;&lt;b&gt;&amp;lt;_base_group_chat_manager.py&amp;gt;&lt;/b&gt;&lt;/div&gt;&lt;hr size=&quot;1&quot; style=&quot;border-style:solid;&quot;&gt;&lt;p style=&quot;margin:0px;margin-left:4px;&quot;&gt;+ field1: Type&lt;br&gt;+ field2: Type&lt;/p&gt;&lt;hr size=&quot;1&quot; style=&quot;border-style:solid;&quot;&gt;&lt;p style=&quot;margin:0px;margin-left:4px;&quot;&gt;+ method1(Type): Type&lt;br&gt;+ method2(Type, Type): Type&lt;/p&gt;" style="verticalAlign=top;align=left;overflow=fill;html=1;whiteSpace=wrap;" vertex="1" parent="1">
          <mxGeometry x="216" y="1480" width="310" height="160" as="geometry" />
        </mxCell>
        <mxCell id="dyTPdEArOloGnQlEpaNO-26" style="edgeStyle=orthogonalEdgeStyle;rounded=0;orthogonalLoop=1;jettySize=auto;html=1;entryX=0.5;entryY=1;entryDx=0;entryDy=0;" edge="1" parent="1" source="dyTPdEArOloGnQlEpaNO-24" target="dyTPdEArOloGnQlEpaNO-21">
          <mxGeometry relative="1" as="geometry" />
        </mxCell>
        <mxCell id="dyTPdEArOloGnQlEpaNO-24" value="&lt;p style=&quot;margin: 4px 0px 0px; text-align: center;&quot;&gt;&lt;br&gt;&lt;span style=&quot;font-size: 18px;&quot;&gt;&lt;b&gt;RoundRobinGroupChatManager&lt;/b&gt;&lt;/span&gt;&lt;br&gt;&lt;/p&gt;&lt;div style=&quot;text-align: center;&quot;&gt;&lt;b&gt;&amp;lt;_round_robin_group_chat.py&amp;gt;&lt;/b&gt;&lt;/div&gt;&lt;hr size=&quot;1&quot; style=&quot;border-style:solid;&quot;&gt;&lt;p style=&quot;margin:0px;margin-left:4px;&quot;&gt;+ field: Type&lt;/p&gt;&lt;hr size=&quot;1&quot; style=&quot;border-style:solid;&quot;&gt;&lt;p style=&quot;margin:0px;margin-left:4px;&quot;&gt;+ method(): Type&lt;/p&gt;" style="verticalAlign=top;align=left;overflow=fill;html=1;whiteSpace=wrap;" vertex="1" parent="1">
          <mxGeometry x="16" y="1754" width="320" height="165" as="geometry" />
        </mxCell>
        <mxCell id="dyTPdEArOloGnQlEpaNO-27" style="edgeStyle=orthogonalEdgeStyle;rounded=0;orthogonalLoop=1;jettySize=auto;html=1;entryX=0.5;entryY=1;entryDx=0;entryDy=0;" edge="1" parent="1" source="dyTPdEArOloGnQlEpaNO-25" target="dyTPdEArOloGnQlEpaNO-21">
          <mxGeometry relative="1" as="geometry" />
        </mxCell>
        <mxCell id="dyTPdEArOloGnQlEpaNO-25" value="&lt;p style=&quot;margin: 4px 0px 0px; text-align: center;&quot;&gt;&lt;br&gt;&lt;span style=&quot;font-size: 18px;&quot;&gt;&lt;b&gt;SelectorGroupChatManager&lt;/b&gt;&lt;/span&gt;&lt;br&gt;&lt;/p&gt;&lt;div style=&quot;text-align: center;&quot;&gt;&lt;b&gt;&amp;lt;_selector_group_chat.py&amp;gt;&lt;/b&gt;&lt;/div&gt;&lt;hr size=&quot;1&quot; style=&quot;border-style:solid;&quot;&gt;&lt;p style=&quot;margin:0px;margin-left:4px;&quot;&gt;+ field: Type&lt;/p&gt;&lt;hr size=&quot;1&quot; style=&quot;border-style:solid;&quot;&gt;&lt;p style=&quot;margin:0px;margin-left:4px;&quot;&gt;+ method(): Type&lt;/p&gt;" style="verticalAlign=top;align=left;overflow=fill;html=1;whiteSpace=wrap;" vertex="1" parent="1">
          <mxGeometry x="386" y="1754" width="320" height="165" as="geometry" />
        </mxCell>
        <mxCell id="dyTPdEArOloGnQlEpaNO-29" style="edgeStyle=orthogonalEdgeStyle;rounded=0;orthogonalLoop=1;jettySize=auto;html=1;entryX=0.5;entryY=1;entryDx=0;entryDy=0;" edge="1" parent="1" source="dyTPdEArOloGnQlEpaNO-28" target="dyTPdEArOloGnQlEpaNO-9">
          <mxGeometry relative="1" as="geometry" />
        </mxCell>
        <mxCell id="dyTPdEArOloGnQlEpaNO-28" value="&lt;p style=&quot;margin: 4px 0px 0px; text-align: center;&quot;&gt;&lt;br&gt;&lt;span style=&quot;font-size: 18px;&quot;&gt;&lt;b&gt;ExtendedGroupChatManager&lt;/b&gt;&lt;/span&gt;&lt;br&gt;&lt;/p&gt;&lt;div style=&quot;text-align: center;&quot;&gt;&lt;b&gt;&amp;lt;workerflowmanager.py&amp;gt;&lt;/b&gt;&lt;/div&gt;&lt;hr size=&quot;1&quot; style=&quot;border-style:solid;&quot;&gt;&lt;p style=&quot;margin:0px;margin-left:4px;&quot;&gt;+ field: Type&lt;/p&gt;&lt;hr size=&quot;1&quot; style=&quot;border-style:solid;&quot;&gt;&lt;p style=&quot;margin:0px;margin-left:4px;&quot;&gt;+ method(): Type&lt;/p&gt;" style="verticalAlign=top;align=left;overflow=fill;html=1;whiteSpace=wrap;" vertex="1" parent="1">
          <mxGeometry x="1326" y="1480" width="320" height="165" as="geometry" />
        </mxCell>
        <mxCell id="dyTPdEArOloGnQlEpaNO-33" style="edgeStyle=orthogonalEdgeStyle;rounded=0;orthogonalLoop=1;jettySize=auto;html=1;entryX=0.5;entryY=1;entryDx=0;entryDy=0;" edge="1" parent="1" source="dyTPdEArOloGnQlEpaNO-30" target="dyTPdEArOloGnQlEpaNO-11">
          <mxGeometry relative="1" as="geometry" />
        </mxCell>
        <mxCell id="dyTPdEArOloGnQlEpaNO-30" value="&lt;p style=&quot;margin: 4px 0px 0px; text-align: center;&quot;&gt;&lt;br&gt;&lt;span style=&quot;font-size: 18px;&quot;&gt;&lt;b&gt;BaseWorker&lt;/b&gt;&lt;/span&gt;&lt;br&gt;&lt;/p&gt;&lt;div style=&quot;text-align: center;&quot;&gt;&lt;b&gt;&amp;lt;base_worker.py&amp;gt;&lt;/b&gt;&lt;/div&gt;&lt;hr size=&quot;1&quot; style=&quot;border-style:solid;&quot;&gt;&lt;p style=&quot;margin:0px;margin-left:4px;&quot;&gt;+ field: Type&lt;/p&gt;&lt;hr size=&quot;1&quot; style=&quot;border-style:solid;&quot;&gt;&lt;p style=&quot;margin:0px;margin-left:4px;&quot;&gt;+ method(): Type&lt;/p&gt;" style="verticalAlign=top;align=left;overflow=fill;html=1;whiteSpace=wrap;" vertex="1" parent="1">
          <mxGeometry x="-314" y="1497.5" width="320" height="165" as="geometry" />
        </mxCell>
        <mxCell id="dyTPdEArOloGnQlEpaNO-32" style="edgeStyle=orthogonalEdgeStyle;rounded=0;orthogonalLoop=1;jettySize=auto;html=1;entryX=0.5;entryY=1;entryDx=0;entryDy=0;" edge="1" parent="1" source="dyTPdEArOloGnQlEpaNO-31" target="dyTPdEArOloGnQlEpaNO-11">
          <mxGeometry relative="1" as="geometry" />
        </mxCell>
        <mxCell id="dyTPdEArOloGnQlEpaNO-31" value="&lt;p style=&quot;margin:0px;margin-top:4px;text-align:center;&quot;&gt;&lt;br&gt;&lt;span style=&quot;font-size: 18px;&quot;&gt;&lt;b&gt;BaseOrchestrator&lt;/b&gt;&lt;/span&gt;&lt;br&gt;&lt;/p&gt;&lt;div style=&quot;text-align: center;&quot;&gt;&lt;b&gt;&amp;lt;base_orchestrator.py&amp;gt;&lt;/b&gt;&lt;/div&gt;&lt;hr size=&quot;1&quot; style=&quot;border-style:solid;&quot;&gt;&lt;p style=&quot;margin:0px;margin-left:4px;&quot;&gt;+ field1: Type&lt;br&gt;+ field2: Type&lt;/p&gt;&lt;hr size=&quot;1&quot; style=&quot;border-style:solid;&quot;&gt;&lt;p style=&quot;margin:0px;margin-left:4px;&quot;&gt;+ method1(Type): Type&lt;br&gt;+ method2(Type, Type): Type&lt;/p&gt;" style="verticalAlign=top;align=left;overflow=fill;html=1;whiteSpace=wrap;" vertex="1" parent="1">
          <mxGeometry x="-664" y="1497.5" width="310" height="160" as="geometry" />
        </mxCell>
        <mxCell id="dyTPdEArOloGnQlEpaNO-36" style="edgeStyle=orthogonalEdgeStyle;rounded=0;orthogonalLoop=1;jettySize=auto;html=1;entryX=0.5;entryY=1;entryDx=0;entryDy=0;" edge="1" parent="1" source="dyTPdEArOloGnQlEpaNO-34" target="dyTPdEArOloGnQlEpaNO-31">
          <mxGeometry relative="1" as="geometry" />
        </mxCell>
        <mxCell id="dyTPdEArOloGnQlEpaNO-34" value="&lt;p style=&quot;margin:0px;margin-top:4px;text-align:center;&quot;&gt;&lt;br&gt;&lt;span style=&quot;font-size: 18px;&quot;&gt;&lt;b&gt;RoundRobinOrchestrator&lt;/b&gt;&lt;/span&gt;&lt;br&gt;&lt;/p&gt;&lt;div style=&quot;text-align: center;&quot;&gt;&lt;b&gt;&amp;lt;orchestrator.py&amp;gt;&lt;/b&gt;&lt;/div&gt;&lt;hr size=&quot;1&quot; style=&quot;border-style:solid;&quot;&gt;&lt;p style=&quot;margin:0px;margin-left:4px;&quot;&gt;+ field1: Type&lt;br&gt;+ field2: Type&lt;/p&gt;&lt;hr size=&quot;1&quot; style=&quot;border-style:solid;&quot;&gt;&lt;p style=&quot;margin:0px;margin-left:4px;&quot;&gt;+ method1(Type): Type&lt;br&gt;+ method2(Type, Type): Type&lt;/p&gt;" style="verticalAlign=top;align=left;overflow=fill;html=1;whiteSpace=wrap;" vertex="1" parent="1">
          <mxGeometry x="-804" y="1779" width="310" height="160" as="geometry" />
        </mxCell>
        <mxCell id="dyTPdEArOloGnQlEpaNO-37" style="edgeStyle=orthogonalEdgeStyle;rounded=0;orthogonalLoop=1;jettySize=auto;html=1;entryX=0.5;entryY=1;entryDx=0;entryDy=0;" edge="1" parent="1" source="dyTPdEArOloGnQlEpaNO-35" target="dyTPdEArOloGnQlEpaNO-31">
          <mxGeometry relative="1" as="geometry" />
        </mxCell>
        <mxCell id="dyTPdEArOloGnQlEpaNO-35" value="&lt;p style=&quot;margin:0px;margin-top:4px;text-align:center;&quot;&gt;&lt;br&gt;&lt;/p&gt;&lt;p style=&quot;margin:0px;margin-top:4px;text-align:center;&quot;&gt;&lt;span style=&quot;font-size: 18px;&quot;&gt;&lt;b&gt;LedgerOrchestrator&lt;/b&gt;&lt;/span&gt;&lt;/p&gt;&lt;div style=&quot;text-align: center;&quot;&gt;&lt;b&gt;&amp;lt;orchestrator.py&amp;gt;&lt;/b&gt;&lt;/div&gt;&lt;hr size=&quot;1&quot; style=&quot;border-style:solid;&quot;&gt;&lt;p style=&quot;margin:0px;margin-left:4px;&quot;&gt;+ field1: Type&lt;br&gt;+ field2: Type&lt;/p&gt;&lt;hr size=&quot;1&quot; style=&quot;border-style:solid;&quot;&gt;&lt;p style=&quot;margin:0px;margin-left:4px;&quot;&gt;+ method1(Type): Type&lt;br&gt;+ method2(Type, Type): Type&lt;/p&gt;" style="verticalAlign=top;align=left;overflow=fill;html=1;whiteSpace=wrap;" vertex="1" parent="1">
          <mxGeometry x="-444" y="1779" width="310" height="160" as="geometry" />
        </mxCell>
      </root>
    </mxGraphModel>
  </diagram>
</mxfile>
